<svg width="14" height="28" viewBox="0 0 14 28" fill="none" xmlns="http://www.w3.org/2000/svg">
<path d="M11.2 15.4V4.2C11.2 3.08609 10.7575 2.0178 9.96985 1.23015C9.1822 0.442499 8.11391 0 7 0C5.88609 0 4.8178 0.442499 4.03015 1.23015C3.2425 2.0178 2.8 3.08609 2.8 4.2V15.4C1.62466 16.2815 0.756466 17.5105 0.318405 18.9128C-0.119656 20.3152 -0.105378 21.8198 0.359217 23.2136C0.823812 24.6074 1.71517 25.8197 2.90703 26.6787C4.09889 27.5377 5.53082 28 7 28C8.46918 28 9.90111 27.5377 11.093 26.6787C12.2848 25.8197 13.1762 24.6074 13.6408 23.2136C14.1054 21.8198 14.1197 20.3152 13.6816 18.9128C13.2435 17.5105 12.3753 16.2815 11.2 15.4ZM7 2.8C7.3713 2.8 7.7274 2.9475 7.98995 3.21005C8.2525 3.4726 8.4 3.8287 8.4 4.2V8.4H5.6V4.2C5.6 3.8287 5.7475 3.4726 6.01005 3.21005C6.2726 2.9475 6.6287 2.8 7 2.8Z" fill="#413C1C"/>
</svg>
